<?xml version="1.0" encoding="utf-8"?>
<!-- Generator: Adobe Illustrator 23.0.1, SVG Export Plug-In . SVG Version: 6.00 Build 0)  -->
<svg version="1.1" id="Layer_1" xmlns="http://www.w3.org/2000/svg" xmlns:xlink="http://www.w3.org/1999/xlink" x="0px" y="0px"
	 viewBox="0 0 207 52" style="enable-background:new 0 0 207 52;" xml:space="preserve">
<style type="text/css">
	.st0{fill:#477DD0;stroke:#477DD0;stroke-miterlimit:10;}
</style>
<g>
	<path class="st0" d="M33.613,25.926c-0.148-2.79-0.326-6.144-0.297-8.637h-0.089c-0.683,2.345-1.514,4.838-2.522,7.598
		l-3.532,9.704h-1.959l-3.235-9.526c-0.95-2.819-1.751-5.401-2.315-7.776h-0.06c-0.059,2.493-0.208,5.847-0.386,8.844l-0.534,8.577
		h-2.463l1.395-20.003h3.294l3.413,9.675c0.831,2.463,1.513,4.66,2.018,6.737h0.089c0.504-2.019,1.217-4.214,2.107-6.737
		l3.561-9.675h3.294L36.64,34.71h-2.523L33.613,25.926z"/>
	<path class="st0" d="M43.88,34.71l-5.075-20.003h2.73l2.374,10.121c0.594,2.493,1.128,4.986,1.484,6.915h0.06
		c0.326-1.988,0.95-4.362,1.632-6.944l2.671-10.091h2.701l2.434,10.15c0.564,2.374,1.098,4.748,1.395,6.855h0.059
		c0.416-2.196,0.979-4.422,1.603-6.915l2.641-10.091h2.642L57.562,34.71h-2.701l-2.522-10.417c-0.623-2.552-1.039-4.511-1.306-6.529
		h-0.06c-0.356,1.988-0.801,3.947-1.543,6.529L46.581,34.71H43.88z"/>
	<path class="st0" d="M71.657,31.565c1.157,0.712,2.849,1.306,4.63,1.306c2.641,0,4.185-1.396,4.185-3.413
		c0-1.87-1.068-2.938-3.769-3.977c-3.265-1.157-5.283-2.849-5.283-5.668c0-3.116,2.582-5.431,6.47-5.431
		c2.048,0,3.532,0.475,4.422,0.979L81.6,17.468c-0.653-0.356-1.989-0.95-3.799-0.95c-2.73,0-3.77,1.632-3.77,2.998
		c0,1.87,1.217,2.79,3.977,3.858c3.383,1.306,5.105,2.938,5.105,5.875c0,3.087-2.286,5.758-7.004,5.758
		c-1.929,0-4.036-0.564-5.104-1.276L71.657,31.565z"/>
	<path class="st0" d="M89.612,16.221v4.125h3.739v1.988h-3.739v7.746c0,1.781,0.504,2.79,1.958,2.79
		c0.683,0,1.188-0.089,1.514-0.179l0.119,1.959c-0.504,0.208-1.306,0.356-2.315,0.356c-1.217,0-2.196-0.386-2.819-1.099
		c-0.742-0.771-1.009-2.047-1.009-3.739v-7.834h-2.226v-1.988h2.226v-3.443L89.612,16.221z"/>
	<path class="st0" d="M104.243,34.71l-0.208-1.811h-0.089c-0.802,1.128-2.345,2.137-4.393,2.137c-2.909,0-4.393-2.048-4.393-4.125
		c0-3.472,3.087-5.371,8.637-5.342v-0.296c0-1.188-0.327-3.324-3.265-3.324c-1.335,0-2.73,0.416-3.74,1.068L96.2,21.296
		c1.187-0.771,2.908-1.276,4.719-1.276c4.393,0,5.461,2.998,5.461,5.876v5.372c0,1.246,0.059,2.463,0.237,3.442H104.243z
		 M103.857,27.38c-2.849-0.06-6.084,0.445-6.084,3.234c0,1.691,1.128,2.493,2.463,2.493c1.87,0,3.057-1.188,3.472-2.403
		c0.089-0.268,0.148-0.564,0.148-0.831V27.38z"/>
	<path class="st0" d="M110.593,24.828c0-1.692-0.03-3.146-0.119-4.481h2.285l0.089,2.819h0.119c0.653-1.929,2.226-3.146,3.977-3.146
		c0.297,0,0.505,0.03,0.742,0.089v2.463c-0.267-0.059-0.534-0.089-0.891-0.089c-1.84,0-3.146,1.395-3.502,3.354
		c-0.059,0.356-0.119,0.772-0.119,1.216v7.657h-2.582V24.828z"/>
	<path class="st0" d="M124.156,16.221v4.125h3.739v1.988h-3.739v7.746c0,1.781,0.504,2.79,1.958,2.79
		c0.683,0,1.188-0.089,1.514-0.179l0.119,1.959c-0.504,0.208-1.306,0.356-2.315,0.356c-1.217,0-2.196-0.386-2.819-1.099
		c-0.742-0.771-1.009-2.047-1.009-3.739v-7.834h-2.226v-1.988h2.226v-3.443L124.156,16.221z"/>
	<path class="st0" d="M132.109,28.003c0.059,3.531,2.314,4.985,4.926,4.985c1.87,0,2.998-0.326,3.978-0.741l0.445,1.869
		c-0.92,0.416-2.493,0.891-4.778,0.891c-4.422,0-7.063-2.908-7.063-7.241s2.552-7.746,6.737-7.746c4.688,0,5.936,4.125,5.936,6.767
		c0,0.534-0.06,0.949-0.09,1.217H132.109z M139.766,26.134c0.03-1.662-0.683-4.244-3.62-4.244c-2.642,0-3.799,2.434-4.007,4.244
		H139.766z"/>
	<path class="st0" d="M145.523,24.828c0-1.692-0.03-3.146-0.119-4.481h2.285l0.089,2.819h0.119c0.652-1.929,2.226-3.146,3.977-3.146
		c0.297,0,0.505,0.03,0.742,0.089v2.463c-0.268-0.059-0.534-0.089-0.891-0.089c-1.84,0-3.146,1.395-3.502,3.354
		c-0.06,0.356-0.118,0.772-0.118,1.216v7.657h-2.582V24.828z"/>
	<path class="st0" d="M161.607,14.707h2.582v9.646h0.089c0.534-0.771,1.068-1.484,1.573-2.137l6.113-7.509h3.205l-7.241,8.488
		l7.806,11.515h-3.058l-6.588-9.823l-1.899,2.196v7.627h-2.582V14.707z"/>
	<path class="st0" d="M180.809,16.31c0.029,0.89-0.623,1.603-1.662,1.603c-0.92,0-1.573-0.712-1.573-1.603
		c0-0.92,0.683-1.632,1.633-1.632C180.186,14.678,180.809,15.39,180.809,16.31z M177.9,34.71V20.347h2.611V34.71H177.9z"/>
	<path class="st0" d="M187.99,16.221v4.125h3.739v1.988h-3.739v7.746c0,1.781,0.505,2.79,1.959,2.79
		c0.683,0,1.187-0.089,1.514-0.179l0.118,1.959c-0.504,0.208-1.306,0.356-2.314,0.356c-1.217,0-2.196-0.386-2.819-1.099
		c-0.742-0.771-1.01-2.047-1.01-3.739v-7.834h-2.226v-1.988h2.226v-3.443L187.99,16.221z"/>
</g>
</svg>
